<?xml version="1.0" standalone="no"?>
<!DOCTYPE svg PUBLIC "-//W3C//DTD SVG 20010904//EN"
 "http://www.w3.org/TR/2001/REC-SVG-20010904/DTD/svg10.dtd">
<svg version="1.0" xmlns="http://www.w3.org/2000/svg"
 width="1080.000000pt" height="1080.000000pt" viewBox="0 0 1080.000000 1080.000000"
 preserveAspectRatio="xMidYMid meet">
<metadata>
Created by potrace 1.11, written by Peter Selinger 2001-2013
</metadata>
<g transform="translate(0.000000,1080.000000) scale(0.100000,-0.100000)"
fill="#000000" stroke="none">
<path d="M2556 8865 c-247 -86 -505 -203 -674 -304 -313 -188 -520 -418 -605
-671 -49 -146 -71 -363 -53 -525 16 -140 102 -418 186 -600 15 -33 39 -85 53
-115 14 -30 71 -149 127 -265 118 -241 220 -456 220 -461 0 -2 13 -32 29 -66
70 -154 171 -439 197 -553 1 -5 9 -37 17 -70 19 -75 28 -122 42 -225 4 -25 9
-56 11 -70 3 -14 7 -99 9 -190 2 -141 0 -181 -20 -275 -13 -60 -35 -144 -50
-185 -50 -138 -163 -345 -242 -445 -13 -16 -27 -35 -31 -40 -64 -89 -215 -243
-333 -342 -81 -68 -274 -203 -289 -203 -11 0 -18 -57 -9 -72 4 -6 20 -13 36
-15 30 -4 304 -50 338 -57 107 -22 195 -40 270 -57 50 -12 99 -23 111 -25 74
-14 461 -126 623 -180 331 -110 589 -215 907 -370 157 -77 439 -230 538 -292
l40 -25 210 216 c646 661 662 676 687 670 154 -36 463 -135 704 -226 88 -33
176 -66 195 -73 245 -90 850 -371 1100 -511 130 -73 136 -75 152 -59 7 7 182
185 388 395 206 211 406 415 444 454 38 40 116 122 175 183 240 250 450 478
597 649 38 44 71 82 74 85 31 28 297 374 336 435 10 17 21 32 24 35 8 8 100
149 100 154 0 2 17 33 39 68 148 244 253 560 278 833 13 153 2 537 -22 720 -3
22 -7 61 -10 86 -3 26 -8 58 -10 70 -3 13 -8 44 -11 69 -3 25 -8 47 -9 50 -2
3 -6 26 -10 50 -18 124 -92 381 -162 560 -192 491 -536 933 -1018 1309 -44 34
-88 69 -98 77 -60 49 -332 238 -483 336 l-42 27 -43 -40 c-23 -21 -113 -106
-198 -188 -86 -82 -178 -171 -206 -197 -27 -26 -133 -127 -235 -224 -102 -98
-207 -199 -235 -225 -27 -26 -122 -116 -210 -200 -88 -85 -190 -182 -227 -217
-37 -35 -97 -92 -133 -127 -53 -51 -69 -62 -76 -50 -5 8 -31 55 -58 105 -46
84 -206 330 -234 359 -6 7 -25 30 -42 51 -93 120 -283 318 -417 434 -91 78
-94 81 -194 158 -43 34 -83 65 -89 70 -90 74 -428 291 -441 283 -7 -3 -101
-91 -209 -196 -108 -104 -227 -219 -264 -253 -96 -92 -435 -418 -570 -548 -64
-62 -141 -135 -171 -164 -55 -53 -437 -419 -495 -475 -17 -16 -43 -41 -57 -53
l-26 -24 -95 134 c-235 330 -345 528 -383 685 -4 15 -8 80 -10 143 -8 309 105
503 408 701 21 13 38 27 38 30 0 3 -24 26 -53 51 l-54 46 -97 -33z m1370
-1169 c214 -118 393 -253 559 -421 133 -135 180 -193 277 -340 70 -107 74
-115 138 -245 70 -142 166 -395 184 -485 3 -11 16 -67 30 -125 14 -58 28 -118
31 -135 14 -79 44 -288 50 -355 4 -41 9 -88 11 -105 5 -48 17 -374 17 -450 0
-70 -12 -359 -18 -425 -6 -80 -16 -176 -20 -190 -2 -8 -7 -42 -10 -75 -4 -33
-15 -102 -26 -154 -10 -51 -21 -103 -23 -115 -12 -68 -94 -326 -107 -341 -5
-5 -9 -15 -9 -22 0 -44 -144 -299 -230 -406 l-52 -65 -121 55 c-67 29 -135 60
-152 68 -40 18 -233 95 -245 97 -3 1 -27 11 -55 23 -166 74 -737 268 -1037
353 -154 44 -193 55 -248 67 -8 2 -51 13 -95 24 -44 11 -91 22 -105 25 -189
37 -216 42 -297 52 -29 4 -53 10 -53 15 0 4 49 45 109 91 150 115 209 166 332
288 185 184 306 362 410 605 31 72 76 224 95 320 4 22 8 42 9 45 0 3 5 32 9
65 5 33 10 76 13 95 10 75 12 408 3 455 -6 28 -12 59 -14 70 -23 117 -118 395
-166 483 -5 9 -46 91 -90 182 l-82 164 88 84 c115 109 740 720 767 750 11 12
26 22 33 22 6 0 47 -20 90 -44z m3002 18 c256 -143 429 -270 597 -439 173
-174 258 -290 397 -545 67 -123 175 -418 213 -585 9 -38 21 -88 26 -110 10
-42 12 -51 24 -125 4 -25 9 -52 10 -61 2 -9 6 -40 10 -69 4 -29 8 -61 10 -71
2 -10 6 -46 10 -81 3 -35 8 -83 10 -108 23 -233 23 -679 0 -929 -10 -115 -16
-168 -19 -186 -2 -11 -7 -42 -10 -68 -4 -27 -9 -57 -11 -67 -2 -9 -6 -35 -9
-56 -11 -65 -58 -256 -72 -291 -8 -18 -14 -35 -14 -38 -1 -21 -61 -175 -103
-265 -62 -131 -149 -267 -225 -351 l-24 -27 -81 38 c-96 44 -400 171 -495 207
-37 13 -89 33 -117 43 -27 10 -88 33 -135 50 -339 127 -884 296 -1150 357 -36
9 -66 17 -68 18 -2 2 42 50 98 107 106 107 255 286 332 398 185 267 311 581
344 855 3 28 8 61 10 75 5 29 4 296 -1 385 -5 97 -15 219 -19 240 -2 11 -7 45
-10 76 -4 31 -9 67 -11 80 -3 13 -7 40 -10 59 -18 138 -99 442 -182 684 l-65
189 119 116 c162 158 456 434 532 500 30 26 33 26 89 -5z"/>
</g>
</svg>
